<?xml version="1.0" encoding="UTF-8" standalone="no"?>
<!-- Created with Inkscape (http://www.inkscape.org/) -->

<svg
   width="210mm"
   height="297mm"
   viewBox="0 0 210 297"
   version="1.1"
   id="svg1"
   xmlns="http://www.w3.org/2000/svg"
   xmlns:svg="http://www.w3.org/2000/svg">
  <defs
     id="defs1">
    <linearGradient
       id="swatch1">
      <stop
         style="stop-color:#8d8d8d;stop-opacity:0.00803211;"
         offset="0"
         id="stop1" />
    </linearGradient>
  </defs>
  <g
     id="layer1"
     style="display:inline;opacity:1;fill:#000000;fill-opacity:1">
    <path
       style="fill:#000000;fill-opacity:1;stroke:none;stroke-width:2;stroke-linecap:round;stroke-dasharray:none;stroke-opacity:1"
       d="m 95.595399,112.31322 -47.951777,79.91963 a 5.843851,5.843851 60.481877 0 0 5.011061,8.85049 H 159.01198 a 5.843851,5.843851 119.51812 0 0 5.01106,-8.85049 l -47.95178,-79.91963 a 11.939377,11.939377 0 0 0 -20.475861,0 z"
       id="path45"
       transform="matrix(1.3106879,0,0,1.8913784,-32.881137,-163.78411)" />
  </g>
  <g
     id="layer2"
     style="display:none;opacity:1;fill:none"
     transform="matrix(1.3271491,0,0,2.993584,-34.660092,-308.75646)">
    <path
       style="fill:#ffffff;fill-opacity:1;stroke:none;stroke-width:2;stroke-linecap:round;stroke-dasharray:none;stroke-opacity:1"
       d="m 103.19675,124.94812 -5.310169,6.67509 a 2.0426375,2.0426375 64.251473 0 0 1.598519,3.31429 h 12.69646 a 2.042638,2.042638 115.74853 0 0 1.59852,-3.31429 l -5.31017,-6.67509 a 3.369109,3.369109 5.2751455e-6 0 0 -5.27316,0 z"
       id="path49" />
  </g>
  <g
     id="layer3"
     style="display:inline">
    <ellipse
       style="display:none;fill:#ffffff;fill-opacity:1;stroke:none;stroke-width:3.95072;stroke-linecap:round;stroke-dasharray:none;stroke-opacity:1"
       id="path54"
       ry="29.420551"
       rx="30.600643"
       cy="167.31429"
       cx="104.36121" />
  </g>
</svg>
